<svg width="27" height="27" viewBox="0 0 27 27" fill="none" xmlns="http://www.w3.org/2000/svg">
<path d="M21.2998 17.3232L21.123 17.1464L20.9463 17.3232L19.7089 18.5606L19.5322 18.7373L19.7089 18.9141L21.5449 20.75H6.49805V3.5V3.25H6.24805H4.49805H4.24805V3.5L4.24805 21L4.24805 21.0003C4.24866 21.5305 4.45953 22.0387 4.83442 22.4136C5.20931 22.7885 5.71759 22.9994 6.24776 23H6.24805H21.5449L19.7089 24.8359L19.5322 25.0127L19.7089 25.1894L20.9463 26.4268L21.123 26.6036L21.2998 26.4268L25.6748 22.0518L25.8516 21.875L25.6748 21.6982L21.2998 17.3232Z" fill="#F8F8F8" stroke="#F8F8F8" stroke-width="0.5"/>
<path d="M2.06056 6.78913L2.23734 6.96591L2.41412 6.78912L4.25 4.95317L4.25 12.2998L4.25 12.5498L4.5 12.5498L6.25 12.5498L6.5 12.5498L6.5 12.2998L6.5 4.95317L8.33588 6.78912L8.51266 6.9659L8.68944 6.78913L9.92678 5.55179L10.1036 5.37501L9.92678 5.19823L5.55178 0.823233L5.375 0.646457L5.19822 0.823233L0.823223 5.19823L0.646446 5.37501L0.823223 5.55179L2.06056 6.78913Z" fill="#F8F8F8" stroke="#F8F8F8" stroke-width="0.5"/>
</svg>
