<svg width="44" height="23" viewBox="0 0 44 23" fill="none" xmlns="http://www.w3.org/2000/svg">
<rect x="1" y="1" width="42" height="21" rx="4" stroke="#405CFF" stroke-width="2"/>
<path d="M13.946 6.81818V17H12.5341L7.35866 9.53267H7.2642V17H5.72798V6.81818H7.14986L12.3303 14.2955H12.4247V6.81818H13.946ZM25.0314 11.9091C25.0314 12.9962 24.8326 13.9309 24.4348 14.7131C24.0371 15.492 23.4919 16.0919 22.7992 16.5128C22.1098 16.9304 21.3259 17.1392 20.4476 17.1392C19.566 17.1392 18.7788 16.9304 18.0861 16.5128C17.3967 16.0919 16.8532 15.4903 16.4554 14.7081C16.0577 13.9259 15.8588 12.9929 15.8588 11.9091C15.8588 10.822 16.0577 9.88897 16.4554 9.11008C16.8532 8.32789 17.3967 7.72798 18.0861 7.31037C18.7788 6.88944 19.566 6.67898 20.4476 6.67898C21.3259 6.67898 22.1098 6.88944 22.7992 7.31037C23.4919 7.72798 24.0371 8.32789 24.4348 9.11008C24.8326 9.88897 25.0314 10.822 25.0314 11.9091ZM23.5101 11.9091C23.5101 11.0805 23.3759 10.3828 23.1074 9.81605C22.8423 9.24598 22.4777 8.8151 22.0137 8.52344C21.553 8.22846 21.031 8.08097 20.4476 8.08097C19.861 8.08097 19.3373 8.22846 18.8766 8.52344C18.4159 8.8151 18.0513 9.24598 17.7828 9.81605C17.5177 10.3828 17.3851 11.0805 17.3851 11.9091C17.3851 12.7377 17.5177 13.437 17.7828 14.0071C18.0513 14.5739 18.4159 15.0047 18.8766 15.2997C19.3373 15.5914 19.861 15.7372 20.4476 15.7372C21.031 15.7372 21.553 15.5914 22.0137 15.2997C22.4777 15.0047 22.8423 14.5739 23.1074 14.0071C23.3759 13.437 23.5101 12.7377 23.5101 11.9091ZM28.8173 17L25.9934 6.81818H27.6092L29.5929 14.7031H29.6873L31.7505 6.81818H33.3514L35.4146 14.7081H35.5091L37.4877 6.81818H39.1085L36.2797 17H34.7335L32.5907 9.37358H32.5112L30.3684 17H28.8173Z" fill="#405CFF"/>
</svg>
