<svg width="101" height="86" viewBox="0 0 101 86" fill="none" xmlns="http://www.w3.org/2000/svg">
<line x1="94.5" y1="35" x2="94.5" y2="58" stroke="#FFBE0B" stroke-width="3"/>
<path d="M6 46L94 46" stroke="#FFBE0B" stroke-width="3" stroke-linecap="round"/>
<line x1="94.5" y1="3" x2="94.5" y2="26" stroke="#8338EC" stroke-width="3"/>
<path d="M6 14L94 14" stroke="#8338EC" stroke-width="3" stroke-linecap="round"/>
<rect x="2" y="35" width="23" height="23" fill="#FFBE0B"/>
<rect x="27.877" y="14.1636" width="19.7127" height="19.7127" transform="rotate(135 27.877 14.1636)" fill="#8338EC"/>
<path d="M95.5303 71.4697C95.2374 71.1768 94.7626 71.1768 94.4697 71.4697L89.6967 76.2426C89.4038 76.5355 89.4038 77.0104 89.6967 77.3033C89.9896 77.5962 90.4645 77.5962 90.7574 77.3033L95 73.0607L99.2426 77.3033C99.5355 77.5962 100.01 77.5962 100.303 77.3033C100.596 77.0104 100.596 76.5355 100.303 76.2426L95.5303 71.4697ZM95.75 86V72H94.25V86H95.75Z" fill="#BCBCBC"/>
<path d="M52.5303 60.4697C52.2374 60.1768 51.7626 60.1768 51.4697 60.4697L46.6967 65.2426C46.4038 65.5355 46.4038 66.0104 46.6967 66.3033C46.9896 66.5962 47.4645 66.5962 47.7574 66.3033L52 62.0607L56.2426 66.3033C56.5355 66.5962 57.0104 66.5962 57.3033 66.3033C57.5962 66.0104 57.5962 65.5355 57.3033 65.2426L52.5303 60.4697ZM52.75 86V61H51.25V86H52.75Z" fill="#BCBCBC"/>
<path d="M9.53033 71.4697C9.23744 71.1768 8.76256 71.1768 8.46967 71.4697L3.6967 76.2426C3.40381 76.5355 3.40381 77.0104 3.6967 77.3033C3.98959 77.5962 4.46447 77.5962 4.75736 77.3033L9 73.0607L13.2426 77.3033C13.5355 77.5962 14.0104 77.5962 14.3033 77.3033C14.5962 77.0104 14.5962 76.5355 14.3033 76.2426L9.53033 71.4697ZM9.75 86V72H8.25V86H9.75Z" fill="#BCBCBC"/>
</svg>
