<svg width="89" height="28" viewBox="0 0 89 28" fill="none" xmlns="http://www.w3.org/2000/svg">
<path d="M42.75 0L47.2226 2.95216L52.4727 4.02728L53.5478 9.27739L56.5 13.75L53.5478 18.2226L52.4727 23.4727L47.2226 24.5478L42.75 27.5L38.2774 24.5478L33.0273 23.4727L31.9522 18.2226L29 13.75L31.9522 9.27739L33.0273 4.02728L38.2774 2.95216L42.75 0Z" fill="#767689"/>
<path d="M74.75 0L76.4919 2.19304L78.8029 0.610874L79.821 3.21993L82.4957 2.38922L82.6995 5.18246L85.5002 5.17702L84.8717 7.90625L87.5495 8.72656L86.1445 11.1493L88.4616 12.7225L86.4048 14.6234L88.1553 16.8097L85.6296 18.0199L86.6578 20.625L83.8877 21.037L84.1024 23.8295L81.3338 23.4067L80.7159 26.1383L78.195 24.9183L76.7993 27.3464L74.75 25.4375L72.7007 27.3464L71.305 24.9183L68.7841 26.1383L68.1662 23.4067L65.3976 23.8295L65.6123 21.037L62.8422 20.625L63.8704 18.0199L61.3447 16.8097L63.0952 14.6234L61.0384 12.7225L63.3555 11.1493L61.9505 8.72656L64.6283 7.90625L63.9998 5.17702L66.8005 5.18246L67.0043 2.38922L69.679 3.21993L70.6971 0.610874L73.0081 2.19304L74.75 0Z" fill="#767689"/>
<circle cx="12.5" cy="13.5" r="12.5" fill="#767689"/>
</svg>
