<svg width="23" height="22" viewBox="0 0 23 22" fill="none" xmlns="http://www.w3.org/2000/svg">
<path d="M1.43472 1C0.642347 1 0 1.64235 0 2.43472V2.43472C0 3.22709 0.642346 3.86944 1.43472 3.86944H21.5653C22.3577 3.86944 23 3.22709 23 2.43472V2.43472C23 1.64235 22.3577 1 21.5653 1H1.43472ZM1.43472 9.52224C0.642345 9.52224 0 10.1646 0 10.957V10.957C0 11.7493 0.642346 12.3917 1.43472 12.3917H21.5653C22.3577 12.3917 23 11.7493 23 10.957V10.957C23 10.1646 22.3577 9.52224 21.5653 9.52224H1.43472ZM1.43472 18.1306C0.642345 18.1306 0 18.7729 0 19.5653V19.5653C0 20.3577 0.642346 21 1.43472 21H21.5653C22.3577 21 23 20.3577 23 19.5653V19.5653C23 18.7729 22.3577 18.1306 21.5653 18.1306H1.43472Z" fill="#F8F8F8"/>
<circle cx="16.5" cy="2.5" r="2.5" fill="#F8F8F8"/>
<circle cx="16.5" cy="19.5" r="2.5" fill="#F8F8F8"/>
<circle cx="6.5" cy="11.5" r="2.5" fill="#F8F8F8"/>
</svg>
