<svg width="89" height="25" viewBox="0 0 89 25" fill="none" xmlns="http://www.w3.org/2000/svg">
<circle cx="76.5" cy="12.5" r="9.5" stroke="#767689" stroke-width="6"/>
<circle cx="12.5" cy="12.5" r="9.5" stroke="#767689" stroke-opacity="0.2" stroke-width="6"/>
<path fill-rule="evenodd" clip-rule="evenodd" d="M15.5313 0.370074C14.7162 0.167054 13.8695 0.0440312 13 0.00982666V6.01895C13.4546 6.05353 13.8961 6.13487 14.3197 6.25816L15.5313 0.370074Z" fill="#767689"/>
<circle cx="44.5" cy="12.5" r="9.5" stroke="#767689" stroke-opacity="0.2" stroke-width="6"/>
<path fill-rule="evenodd" clip-rule="evenodd" d="M41.7462 24.6957C42.6321 24.8949 43.5537 25 44.4998 25C51.4034 25 56.9998 19.4036 56.9998 12.5C56.9998 5.76391 51.6716 0.272279 44.9998 0.00982666V6.01895C48.356 6.27427 50.9998 9.07839 50.9998 12.5C50.9998 16.0899 48.0896 19 44.4998 19C44.1114 19 43.731 18.966 43.3614 18.9007L41.7462 24.6957Z" fill="#767689"/>
</svg>
