<svg width="89" height="25" viewBox="0 0 89 25" fill="none" xmlns="http://www.w3.org/2000/svg">
<circle cx="12.5" cy="12.5" r="12.5" fill="#767689" fill-opacity="0.1"/>
<circle cx="12.5" cy="12.5" r="11" stroke="#767689" stroke-opacity="0.2"/>
<circle cx="12.5" cy="12.5" r="9" stroke="#767689" stroke-opacity="0.2"/>
<circle cx="12.5" cy="12.5" r="7" stroke="#767689" stroke-opacity="0.2"/>
<circle cx="12.5" cy="12.5" r="5" stroke="#767689" stroke-opacity="0.2"/>
<circle cx="12.5" cy="12.5" r="3" stroke="#767689" stroke-opacity="0.2"/>
<circle cx="12.5" cy="12.5" r="1" stroke="#767689"/>
<circle cx="44.5" cy="12.5" r="12.5" fill="#767689" fill-opacity="0.1"/>
<circle cx="44.5" cy="12.5" r="11" stroke="#767689" stroke-opacity="0.2"/>
<circle cx="44.5" cy="12.5" r="9" stroke="#767689" stroke-opacity="0.2"/>
<circle cx="44.5" cy="12.5" r="7" stroke="#767689" stroke-opacity="0.2"/>
<circle cx="44.5" cy="12.5" r="5" stroke="#767689"/>
<circle cx="44.5" cy="12.5" r="3" stroke="#767689"/>
<circle cx="44.5" cy="12.5" r="1" stroke="#767689"/>
<circle cx="76.5" cy="12.5" r="12.5" fill="#767689" fill-opacity="0.1"/>
<circle cx="76.5" cy="12.5" r="11" stroke="#767689"/>
<circle cx="76.5" cy="12.5" r="9" stroke="#767689"/>
<circle cx="76.5" cy="12.5" r="7" stroke="#767689"/>
<circle cx="76.5" cy="12.5" r="5" stroke="#767689"/>
<circle cx="76.5" cy="12.5" r="3" stroke="#767689"/>
<circle cx="76.5" cy="12.5" r="1" stroke="#767689"/>
</svg>
